# xmcd
#
# Track frame offsets: 
#        180
#        14320
#        28221
#        41316
#        50693
#        69472
#        81665
#        99171
#        111140
#        125493
#        143195
#        159663
#        180586
#        199484
#        210165
#        228810
#        241586
#        262031
#        278606
#        292032
#        303760
#
# Disc length: 4241 seconds
#
# Revision: 0
# Processed by: cddbd v1.5.1PL0 Copyright (c) Steve Scherf et al.
# Submitted via: ExactAudioCopy v0.95a5
#
DISCID=23108f15
DTITLE=Will Ferdy - Een halve eeuw... vol.2
DYEAR=1998
DGENRE=Kleinkunst
TTITLE0=Waar zou ik staan
TTITLE1=New York - New York ( Nederl.versie)
TTITLE2=Utopia
TTITLE3=De arme shoeshineboy
TTITLE4=My way ( Engelse versie)
TTITLE5=Liever lief zijn
TTITLE6=Het afscheid
TTITLE7=Omdat
TTITLE8=Ik ben er ook nog
TTITLE9=Zo af en toe
TTITLE10=We kunnen mekaar niet missen
TTITLE11=De laatste zeven dagen
TTITLE12=Geloven
TTITLE13=Ik weet wat liefde is
TTITLE14=Een moeder als zovelen
TTITLE15=Liefde heeft duizend namen
TTITLE16=De man in't wit
TTITLE17=Alleen voor jou
TTITLE18=Christine ( Franse versie)
TTITLE19=Wat was en nog moet komen
TTITLE20=De ene dag is de andere niet
EXTD=
EXTT0=
EXTT1=
EXTT2=
EXTT3=
EXTT4=
EXTT5=
EXTT6=
EXTT7=
EXTT8=
EXTT9=
EXTT10=
EXTT11=
EXTT12=
EXTT13=
EXTT14=
EXTT15=
EXTT16=
EXTT17=
EXTT18=
EXTT19=
EXTT20=
PLAYORDER=
